<?xml version="1.0" encoding="UTF-8" standalone="no"?>
<!DOCTYPE svg PUBLIC "-//W3C//DTD SVG 1.1//EN" "http://www.w3.org/Graphics/SVG/1.1/DTD/svg11.dtd">
<svg width="100%" height="100%" viewBox="0 0 1080 1080" version="1.1" xmlns="http://www.w3.org/2000/svg" xmlns:xlink="http://www.w3.org/1999/xlink" xml:space="preserve" xmlns:serif="http://www.serif.com/" style="fill-rule:evenodd;clip-rule:evenodd;stroke-linejoin:round;stroke-miterlimit:2;">
    <g transform="matrix(0.992181,0,0,0.996018,137.665,120.177)">
        <rect x="271.458" y="551.903" width="268.329" height="20.144"/>
    </g>
    <g transform="matrix(0.064729,0,0,7.4831,655.66,-3590.94)">
        <path d="M539.787,551.903L530.526,569.393C516.651,570.84 412.013,571.61 271.458,572.074L271.458,551.903L539.787,551.903Z"/>
    </g>
    <g transform="matrix(0.064729,0,0,7.4831,372.06,-3590.94)">
        <path d="M539.787,551.903L539.787,572.082C403.005,571.656 312.021,570.785 277.153,569.393L271.458,551.903L539.787,551.903Z"/>
    </g>
    <g transform="matrix(-6.20718e-05,-1.02095,0.870857,-5.29464e-05,48.1084,1141.26)">
        <path d="M490.65,587.76L490.65,656.405L490.65,473.352L490.65,541.997L609.058,541.997L609.058,473.352L687.129,564.878L609.058,656.405L609.058,587.76L490.65,587.76Z"/>
    </g>
</svg>
